<?xml version="1.0" encoding="utf-8"?>
<!-- Generator: Adobe Illustrator 23.0.3, SVG Export Plug-In . SVG Version: 6.00 Build 0)  -->
<svg version="1.1" id="Isolation_Mode" xmlns="http://www.w3.org/2000/svg" xmlns:xlink="http://www.w3.org/1999/xlink" x="0px"
	 y="0px" viewBox="0 0 83 101" style="enable-background:new 0 0 83 101;" xml:space="preserve">
<style type="text/css">
	.st0{fill:#5A5C5D;}
	.st1{fill:#EB2227;}
	.st2{fill-rule:evenodd;clip-rule:evenodd;}
</style>
<g>
	<g>
		<g>
			<g>
				<path class="st0" d="M2.2,48.1v1.5c0,0.2,0,0.4,0.1,0.5c0,0.1,0.1,0.2,0.2,0.3c0.1,0,0.3,0.1,0.5,0.1h0.2v0.3H0.1v-0.3h0.2
					c0.2,0,0.4,0,0.5-0.1c0.1,0,0.2-0.1,0.2-0.3C1,50,1,49.8,1,49.6v-3.4c0-0.3-0.1-0.5-0.2-0.6c-0.1-0.1-0.3-0.2-0.6-0.2H0.1v-0.3
					h3.1v0.3H3c-0.2,0-0.4,0-0.5,0.1c-0.1,0-0.2,0.1-0.2,0.3c0,0.1-0.1,0.3-0.1,0.5v1.3H5v-1.4c0-0.3-0.1-0.5-0.2-0.6
					c-0.1-0.1-0.3-0.2-0.5-0.2H4v-0.3h3.1v0.3H6.9c-0.3,0-0.5,0.1-0.6,0.2c-0.1,0.1-0.2,0.3-0.2,0.7v3.3c0,0.2,0,0.4,0.1,0.5
					c0,0.1,0.1,0.2,0.2,0.3c0.1,0,0.3,0.1,0.5,0.1h0.2v0.3H4v-0.3h0.2c0.2,0,0.4,0,0.5-0.1c0.1,0,0.2-0.1,0.2-0.3
					C5,50,5,49.8,5,49.6v-1.5H2.2z"/>
			</g>
			<g>
				<path class="st0" d="M9.8,48c0-0.5,0.1-1,0.4-1.5c0.3-0.5,0.7-0.8,1.1-1.1c0.5-0.3,1-0.4,1.6-0.4c0.6,0,1.1,0.1,1.6,0.4
					c0.5,0.3,0.9,0.6,1.1,1.1c0.3,0.4,0.4,0.9,0.4,1.5c0,0.5-0.1,1-0.4,1.5c-0.3,0.4-0.7,0.8-1.1,1.1c-0.5,0.3-1,0.4-1.6,0.4
					c-0.6,0-1.1-0.1-1.6-0.4c-0.5-0.3-0.9-0.6-1.1-1.1C9.9,49,9.8,48.5,9.8,48z M11.1,48c0,0.4,0,0.8,0.1,1.1
					c0.1,0.3,0.2,0.6,0.4,0.8c0.2,0.2,0.4,0.4,0.6,0.5c0.2,0.1,0.5,0.2,0.8,0.2c0.3,0,0.6-0.1,0.8-0.2c0.2-0.1,0.4-0.3,0.6-0.5
					c0.2-0.2,0.3-0.5,0.4-0.8c0.1-0.3,0.1-0.7,0.1-1.1c0-0.5-0.1-1-0.2-1.4c-0.1-0.4-0.4-0.7-0.6-0.9c-0.3-0.2-0.6-0.3-1-0.3
					c-0.4,0-0.7,0.1-1,0.3c-0.3,0.2-0.5,0.5-0.6,0.9C11.2,47,11.1,47.4,11.1,48z"/>
			</g>
			<g>
				<path class="st0" d="M18.8,45.1h3v0.3h-0.1c-0.2,0-0.4,0-0.5,0.1c-0.1,0-0.2,0.1-0.2,0.3c-0.1,0.1-0.1,0.3-0.1,0.5v1.6l1.8-1.6
					c0.2-0.2,0.3-0.3,0.4-0.4c0.1-0.1,0.1-0.2,0.1-0.3c0-0.1,0-0.2-0.1-0.2c-0.1,0-0.2-0.1-0.4-0.1h-0.1v-0.3h2.4v0.3
					c-0.1,0-0.3,0-0.4,0.1c-0.1,0-0.3,0.1-0.4,0.2c-0.2,0.1-0.3,0.2-0.5,0.4l-1.7,1.4l2.2,2.1c0.3,0.3,0.6,0.5,0.9,0.7
					c0.2,0.1,0.5,0.2,0.7,0.2v0.3h-3.1v-0.3c0.2,0,0.4,0,0.5,0c0.1,0,0.1-0.1,0.1-0.2c0,0,0-0.1-0.1-0.2c0-0.1-0.1-0.2-0.3-0.3
					L20.8,48v1.6c0,0.2,0,0.4,0.1,0.5c0.1,0.1,0.1,0.2,0.2,0.3c0.1,0,0.3,0.1,0.5,0.1h0.1v0.3h-3v-0.3h0.1c0.2,0,0.4,0,0.5-0.1
					c0.1,0,0.2-0.1,0.2-0.3c0-0.1,0.1-0.3,0.1-0.5v-3.3c0-0.2,0-0.4-0.1-0.5c-0.1-0.1-0.1-0.2-0.3-0.3c-0.1,0-0.3-0.1-0.5-0.1h-0.1
					V45.1z"/>
			</g>
			<g>
				<path class="st0" d="M28.4,45.1h3v0.3h-0.1c-0.2,0-0.4,0-0.5,0.1c-0.1,0-0.2,0.1-0.2,0.3c0,0.1-0.1,0.3-0.1,0.5v1.6l1.8-1.6
					c0.2-0.2,0.3-0.3,0.4-0.4c0.1-0.1,0.1-0.2,0.1-0.3c0-0.1,0-0.2-0.1-0.2c-0.1,0-0.2-0.1-0.4-0.1h-0.1v-0.3h2.4v0.3
					c-0.1,0-0.3,0-0.4,0.1c-0.1,0-0.3,0.1-0.4,0.2c-0.2,0.1-0.3,0.2-0.5,0.4l-1.7,1.4l2.2,2.1c0.3,0.3,0.6,0.5,0.9,0.7
					c0.2,0.1,0.5,0.2,0.7,0.2v0.3h-3.1v-0.3c0.2,0,0.4,0,0.5,0c0.1,0,0.1-0.1,0.1-0.2c0,0,0-0.1-0.1-0.2c0-0.1-0.1-0.2-0.3-0.3
					L30.4,48v1.6c0,0.2,0,0.4,0.1,0.5c0,0.1,0.1,0.2,0.2,0.3c0.1,0,0.3,0.1,0.5,0.1h0.1v0.3h-3v-0.3h0.1c0.2,0,0.4,0,0.5-0.1
					c0.1,0,0.2-0.1,0.2-0.3c0-0.1,0.1-0.3,0.1-0.5v-3.3c0-0.2,0-0.4-0.1-0.5c-0.1-0.1-0.1-0.2-0.2-0.3c-0.1,0-0.3-0.1-0.5-0.1h-0.1
					V45.1z"/>
			</g>
			<g>
				<path class="st0" d="M39.6,49.2l-0.2,0.3c-0.1,0.2-0.1,0.4-0.1,0.4c0,0.3,0.2,0.4,0.7,0.4v0.3h-2v-0.3c0.2,0,0.4-0.1,0.5-0.2
					c0.2-0.1,0.3-0.4,0.4-0.7L41,45h0.2l2.5,5c0.1,0.1,0.1,0.2,0.2,0.3c0.1,0.1,0.1,0.1,0.2,0.1c0.1,0,0.2,0,0.3,0.1v0.3H42v-0.3
					c0.2,0,0.4,0,0.5-0.1c0.1,0,0.1-0.1,0.1-0.2c0-0.1,0-0.3-0.2-0.5l-0.3-0.5H39.6z M41.9,48.8l-1.1-2.2l-1,2.2H41.9z"/>
			</g>
			<g>
				<path class="st0" d="M50.2,50.7H47v-0.3h0.2c0.3,0,0.5-0.1,0.6-0.2c0.1-0.1,0.2-0.4,0.2-0.7v-3.3c0-0.2,0-0.4-0.1-0.5
					c0-0.1-0.1-0.2-0.2-0.3c-0.1,0-0.3-0.1-0.5-0.1H47v-0.3h3.1v0.3H50c-0.2,0-0.4,0-0.5,0.1c-0.1,0-0.2,0.1-0.2,0.3
					c0,0.1-0.1,0.3-0.1,0.5v3.3c0,0.2,0,0.4,0.1,0.5c0,0.1,0.1,0.2,0.2,0.3c0.1,0,0.3,0.1,0.5,0.1h0.2V50.7z"/>
			</g>
			<g>
				<path class="st0" d="M52.8,45.1h3.7c0.5,0,1,0.1,1.4,0.2c0.4,0.2,0.7,0.4,1,0.6c0.3,0.3,0.5,0.6,0.6,0.9c0.1,0.3,0.2,0.7,0.2,1
					c0,0.5-0.1,0.9-0.4,1.3c-0.2,0.4-0.6,0.8-1.1,1.1c-0.5,0.3-1.2,0.4-1.9,0.4h-3.5v-0.3H53c0.2,0,0.4,0,0.5-0.1
					c0.1,0,0.2-0.1,0.2-0.3c0.1-0.1,0.1-0.3,0.1-0.5v-3.3c0-0.3-0.1-0.6-0.2-0.7c-0.1-0.1-0.3-0.2-0.6-0.2h-0.3V45.1z M55,45.7v4.5
					c0.1,0,0.3,0.1,0.5,0.1c0.2,0,0.4,0,0.6,0c0.4,0,0.7-0.1,1-0.2c0.3-0.1,0.5-0.3,0.7-0.5c0.2-0.2,0.3-0.5,0.4-0.7
					c0.1-0.3,0.1-0.6,0.1-0.9c0-0.5-0.1-0.9-0.3-1.3c-0.2-0.4-0.5-0.6-0.8-0.8c-0.4-0.2-0.8-0.3-1.3-0.3
					C55.6,45.6,55.3,45.6,55,45.7z"/>
			</g>
			<g>
				<path class="st0" d="M62.5,48c0-0.5,0.1-1,0.4-1.5c0.3-0.5,0.7-0.8,1.1-1.1c0.5-0.3,1-0.4,1.6-0.4c0.6,0,1.1,0.1,1.6,0.4
					c0.5,0.3,0.9,0.6,1.1,1.1c0.3,0.4,0.4,0.9,0.4,1.5c0,0.5-0.1,1-0.4,1.5c-0.3,0.4-0.7,0.8-1.1,1.1c-0.5,0.3-1,0.4-1.6,0.4
					c-0.6,0-1.1-0.1-1.6-0.4c-0.5-0.3-0.9-0.6-1.1-1.1C62.6,49,62.5,48.5,62.5,48z M63.8,48c0,0.4,0,0.8,0.1,1.1
					c0.1,0.3,0.2,0.6,0.4,0.8c0.2,0.2,0.4,0.4,0.6,0.5c0.2,0.1,0.5,0.2,0.8,0.2c0.3,0,0.6-0.1,0.8-0.2c0.2-0.1,0.4-0.3,0.6-0.5
					c0.2-0.2,0.3-0.5,0.4-0.8c0.1-0.3,0.1-0.7,0.1-1.1c0-0.5-0.1-1-0.2-1.4c-0.1-0.4-0.4-0.7-0.6-0.9c-0.3-0.2-0.6-0.3-1-0.3
					c-0.4,0-0.7,0.1-1,0.3c-0.3,0.2-0.5,0.5-0.6,0.9C63.8,47,63.8,47.4,63.8,48z"/>
			</g>
		</g>
		<g>
			<g>
				<path class="st0" d="M50.1,53.9c-0.2-0.4-0.5-0.5-0.9-0.5c-0.5,0-1,0.3-1,0.8c0,0.5,0.4,0.7,0.8,0.8l0.4,0.2
					c0.8,0.3,1.4,0.8,1.4,1.7c0,1-0.8,1.8-1.8,1.8c-0.9,0-1.7-0.7-1.8-1.6l0.7-0.2c0,0.6,0.5,1.1,1.1,1.1c0.6,0,1.1-0.5,1.1-1.1
					c0-0.6-0.5-0.9-1-1.1l-0.4-0.2c-0.7-0.3-1.3-0.7-1.3-1.5c0-0.9,0.8-1.5,1.7-1.5c0.6,0,1.2,0.3,1.5,0.9L50.1,53.9z"/>
			</g>
			<g>
				<path class="st0" d="M52.4,57.1l-0.7,1.4H51l2.8-6l2.8,6h-0.8l-0.7-1.4H52.4z M53.8,54.2l-1,2.3h2.1L53.8,54.2z"/>
			</g>
			<g>
				<path class="st0" d="M61.2,53.9c-0.4-0.4-1-0.6-1.5-0.6c-1.3,0-2.3,1.1-2.3,2.3c0,1.3,1,2.3,2.3,2.3c0.6,0,1.1-0.2,1.5-0.6v0.8
					c-0.4,0.3-1,0.4-1.5,0.4c-1.6,0-3-1.3-3-3c0-1.7,1.4-3,3.1-3c0.5,0,1,0.1,1.5,0.4V53.9z"/>
			</g>
			<g>
				<path class="st0" d="M65.5,55.2v-2.3h0.7v5.7h-0.7v-2.8h-2.7v2.8H62v-5.7h0.7v2.3H65.5z"/>
			</g>
			<g>
				<path class="st0" d="M67.9,58.6h-0.7v-5.7h0.7V58.6z"/>
			</g>
		</g>
		<g>
			<g>
				<path class="st0" d="M1.9,40.7c-0.1-0.2-0.3-0.4-0.6-0.4c-0.3,0-0.7,0.2-0.7,0.6c0,0.3,0.3,0.5,0.5,0.6l0.3,0.1
					c0.6,0.2,1,0.5,1,1.2c0,0.7-0.5,1.2-1.2,1.2c-0.6,0-1.1-0.5-1.2-1.1l0.5-0.1c0,0.4,0.3,0.7,0.8,0.7c0.4,0,0.7-0.4,0.7-0.8
					c0-0.4-0.3-0.6-0.7-0.7L1,41.8c-0.4-0.2-0.8-0.4-0.8-1c0-0.6,0.6-1,1.1-1c0.4,0,0.8,0.2,1,0.6L1.9,40.7z"/>
			</g>
			<g>
				<path class="st0" d="M5.5,39.9v2.3c0,0.6,0.2,1.2,0.9,1.2c0.7,0,0.9-0.6,0.9-1.2v-2.3h0.5v2.5c0,0.9-0.5,1.5-1.4,1.5
					c-0.9,0-1.4-0.7-1.4-1.5v-2.5H5.5z"/>
			</g>
			<g>
				<path class="st0" d="M12.3,40.7c-0.1-0.2-0.3-0.4-0.6-0.4c-0.3,0-0.7,0.2-0.7,0.6c0,0.3,0.3,0.5,0.5,0.6l0.3,0.1
					c0.6,0.2,1,0.5,1,1.2c0,0.7-0.5,1.2-1.2,1.2c-0.6,0-1.1-0.5-1.2-1.1l0.5-0.1c0,0.4,0.3,0.7,0.8,0.7c0.4,0,0.7-0.4,0.7-0.8
					c0-0.4-0.3-0.6-0.7-0.7l-0.3-0.1c-0.4-0.2-0.8-0.4-0.8-1c0-0.6,0.6-1,1.1-1c0.4,0,0.8,0.2,1,0.6L12.3,40.7z"/>
			</g>
			<g>
				<path class="st0" d="M17.7,41.5v-1.6h0.5v3.9h-0.5v-1.9h-1.9v1.9h-0.5v-3.9h0.5v1.6H17.7z"/>
			</g>
			<g>
				<path class="st0" d="M21.4,43.8H21v-3.9h0.5V43.8z"/>
			</g>
		</g>
	</g>
	<g>
		<g>
			<g>
				<path class="st1" d="M75.2,50.9c-1,1-2.4,1.7-4.3,2.2C72.7,52.7,74.1,52,75.2,50.9z"/>
			</g>
			<g>
				<path class="st1" d="M65.5,34.5c0.9-0.8,1.1-1.6,0.4-2.3C64.2,31.6,63.4,34.4,65.5,34.5z M82.4,40.8c-0.1,0.1-0.3,0.1-0.4,0.2
					c-0.5,0.7-1,1.4-1.7,2.1c0.7-0.7-1.9,1.1-1.7,1.4c1.1-0.2,2-0.4,2.8-0.8c0.4-0.3,0.6-0.5,0.8-0.9c0.1-0.2,0.2-0.3,0.3-0.4
					c0.2-0.5,0.3-1,0.5-1.5C82.8,40.6,82.6,40.7,82.4,40.8z M76.8,39.9c-2-4.3-4.4-7-6.7-8.7c-0.3-0.2-0.7-0.5-1-0.7
					c-0.2-0.1-0.5-0.3-0.7-0.4c-2.5-1.4-4.8-1.8-6.4-1.9c-0.6-0.1-1.2,0-1.8,0.1c0,0,0,0,0,0c-2.3,6.8,6.4,17.1,13.8,15.9
					c-0.7-0.8-3.6-0.8-1.6-1c-2.1-1.3-5.5-2.5-6.9-5c1.9-1,4.1-4.2,2.4-4.9c-1,0.5-2.5,3.1-4.1,3c-1.3-2-2.4-3.9-1.7-6
					c11,0.5,18.1,16.3,8.7,22.8c1.9-0.4,3.3-1.2,4.3-2.2c4-3.8,1.7-10.8,1.7-10.8C76.9,40.1,76.8,40,76.8,39.9z"/>
			</g>
		</g>
		<g>
			<g>
				<g>
					<path d="M46.9,90.9c0,0-0.5,0-0.7,0.4c-0.3,0.4-1.3,0.5-1.3,1.8c0,0,0,0.6,1.2,0.9c0,0,0,0.1,0,0.5c-0.1,0.2,0,1.3,0,1.9
						c0.3,0,0.6,0,0.9,0c0-0.7,0.1-1.6,0.4-2.1c0.4-0.7,0-1,0.3-1.1c0.3-0.1,1.4-0.3,2-0.6c0.6-0.3,0.9-1,1.1-0.5
						c0.1,0.5-0.2,0.5-0.3,1.1c0,0,0,0.9,0.1,1.8c0.1,0.9,0.4,0.7,0.7,0.9c0,0,0,0.4,0.6,0.3c0.6-0.1,2.3,0.4,3.2-1
						c0,0,1.6-0.9,4.4,0.3c0,0,0.4,0.4,1.3-0.1c0.9-0.5,1-0.7,1-0.9c0-0.2,0.3-0.4,0.4-1.1c0.1-0.7,0.4-2,0.3-2.9
						c-0.1-0.9,0.2-2.9,1-3.7c0.8-0.8,0.4-0.9,1.3-1.1c0.8-0.2,1.4-2.8-0.7-3c0,0-0.1,0-0.1,0c0,0-1.4,0.3-1.6,0.4
						c-0.2,0.1-0.7,0-0.7-0.3c0.1-0.3,0.1-1.3-0.1-1.6c-0.1-0.2-0.4-0.5-0.3-0.6c0,0,0.1,0,0.2-0.1c0.1,0,0.4-0.1,0.7,0
						c0.2,0,0.5,0.1,0.7,0.2c0.2,0.1,0.4,0.2,0.6,0.4c0.5,0.4,1.6,0.6,2.6,0.5c0.3,0,0.6-0.1,0.9-0.2c0.2,0,0.3-0.1,0.5-0.2
						c0.2-0.1,0.4-0.2,0.6-0.3c0.4-0.3,0.5-0.7,0.4-1.2c-0.1-0.4-0.3-0.8-0.5-1.1c-0.2-0.4-0.5-0.6-0.8-0.9c-0.4-0.3-1-0.4-1.6-0.4
						c-0.3,0-0.6,0-0.9,0.1c-0.2,0-0.4,0.1-0.6,0.1c0,0-1.4,0.1,0.6-1.7c0,0,0.1,0,0.1-0.1c0.1-0.1,0.3-0.2,0.4-0.3
						c1.6-1.4,1.9-1,1.9-1s2.8,0.7,3.2-0.8c0.3-0.9-0.5-1.6-1.4-1.9c-0.2-0.1-0.4-0.1-0.5-0.2c-0.2-0.1-0.5-0.1-0.6-0.1
						c-0.7,0-2.1-1.5-3.7,0.6c0,0-1.3,1.6-1.3,3.7c0,0.9-0.1,1.3-0.2,1.6c-0.1,0.2-0.3,0.3-0.5,0.4c-0.2,0-0.5,0.1-0.9,0.1
						c-0.5,0-1,0.2-1.5,0.3c-0.4,0.1-0.7,0.1-1,0.1c-0.3,0-0.5-0.1-0.7-0.2c-0.1-0.2-0.2-0.4-0.4-0.6c-0.3-0.5-0.7-1-1.9-1.1
						c-1.2-0.1-2-0.6-2.5-0.9c-0.1,0-0.1-0.1-0.2-0.1c-0.1-0.1-0.2-0.1-0.3,0c-0.3,0.3-1,0.4,0.3,2c0,0,0,0,0,0.1
						c1.3,1.5,2.2,1.2,2.7,1.1c0.5-0.1,0.4,0.3-1.6,0.1c-0.1,0-0.2,0-0.4,0c0,0,0,0,0,0c0,0,0,0,0,0c-0.3,0-1.8,0.1-2.1,0
						c-0.2-0.1-0.4-0.2-0.6-0.3c-0.2,0-0.4,0-0.5,0.3c-0.3,0.6-1.3,1-0.2,2.1c1.2,1.1,1.5,2,4.4,1.6c3-0.3,2.7-0.2,3.3-0.8
						c0.4-0.4,0.9-0.5,1.3-0.4c0.2,0,0.4,0,0.4,0c0.2,0.3,0.4,1.9,0.1,2.2c-0.3,0.3-0.7,0.9-1.5,0.3c-0.8-0.5-1.6-0.8-2.9-0.3
						c0,0-0.4-0.2-0.8,0.2c-0.4,0.4-1.3,1.2-1.4,1.4c-0.1,0.2-0.4,0.2-0.5-0.2c0-0.3,0.2-0.9-0.5-1.4c-0.8-0.5-0.2-0.3-0.9-0.8
						c-0.6-0.5-2.6-1-3.2-0.8l-0.1,0c0,0-0.4-0.2-0.6,0c0,0-0.1-0.1-0.3,0.2c-0.3,0.2-0.7,0.4-1,0.4c-0.3,0.1-1.3-0.2-0.9,0.3
						c0,0,0.5,1,1.6,1.4c1.1,0.4,1.3,0.5,1,1.3c-0.3,0.7-0.2,0.8-0.2,0.8s-0.1,0.5,0,0.5c0.1,0,0.4-0.6,0.5-0.7c0.1,0,0,0,0.2,0
						c0.1,0,0.4-0.6,1.1-0.5c0.8,0,0.7,0.2,1.4,0.2c0.7,0,1.1,0,1.2-0.2c0.1-0.1,0.1,0.1,0.2,0.1c0.2,0,0.5-0.3,0.7-0.2
						c0.1,0,0.4,0.5,0.2,1c0,0-0.1,0.2,0.1,0.5c0.1,0.3-1.5,3.3-1.8,3.6c-0.3,0.3-0.4,0.7-0.4-0.1c0-0.7-0.3-2-0.7-2.2
						c-0.4-0.2-0.3-0.5-0.9-0.7c-0.5-0.2-1.4-0.1-2.2,0c-0.8,0.1-0.7,0-1.2,0c-0.5,0-0.7-0.6-1,0c-0.3,0.6-0.1,1.3,0.5,1.9
						C46.4,90.1,47.7,90.5,46.9,90.9z M60.4,94.8c0,0-1.4-0.1-2.2-0.4c-0.8-0.2-1.8,0.1-2.4,0.2c-0.6,0.1-0.9,0-0.5-0.5
						c0,0,0-0.3,0.4-0.2c0.4,0.1,2.2-0.4,3.2-0.6c1-0.2,2.2-0.2,2.2,0.1C61,93.8,61.2,94.8,60.4,94.8z M58.6,87.2
						c0.1-0.1,0.1-0.5,1.2-0.4c1.1,0.1,1.4-0.4,1.5-0.4c0.1,0,1.9-1.2,1.4-0.3c-0.4,0.9-0.4,0.8-0.5,1.1c-0.1,0.4-0.1,0.8-1,0.8
						c-0.9,0-3.5,0.5-3.3,0C58,88,58.5,87.3,58.6,87.2z M55,90.9c-0.5-0.9,2.9-0.1,3.6-0.3c0.7-0.2,1.7-0.3,2.5-0.6
						c0.8-0.3,0.2,1.1,0.1,1.2c-0.1,0.1-0.3,0.2-0.5,0.3c-0.2,0.1-1.6,0-1.6,0c-1.3-0.1-1.6,0-2.7,0.2c-1.1,0.2-1.1-0.1-1.5-0.1
						C54.3,91.4,55,90.9,55,90.9z"/>
				</g>
				<g>
					<path d="M72.1,84.8C72.1,84.7,72.1,84.7,72.1,84.8c-0.3-1.6,0.1,0.8-0.5,2c0,0-0.6,2.4-1.1,3.4c-0.1,0.2-0.2,0.4-0.2,0.5
						c-0.1,0.2-0.1,0.3-0.2,0.4c0,0,0,0,0,0c0,0,0,0.1-0.2,0.3c-0.1,0.2-0.3,0.3-0.6,0.6c-0.5,0.5-1.2,1.4-2.1,2.2
						c-0.4,0.3-0.8,0.6-1.2,0.9c-0.1,0.1-0.3,0.1-0.4,0.2c0,0-0.4,0.2-0.5,0.3c-0.8,0.5-1.7,0.9-2.8,1.2c-0.1,0-0.2,0-0.4,0.1
						c-2,0.6-4.5,1-7.4,0.8c-0.4,0-0.7,0-1.1,0c0,0-0.1,0-0.1,0c-0.2,0-0.3,0-0.5,0c-1.3-0.1-2.7-0.2-3.9-0.7c0,0-0.1,0-0.1,0
						c-0.6,0-1.2-0.2-1.4-0.4c-0.2-0.2-0.7-0.1-0.7-0.4c-0.2,0-0.5-0.1-0.7-0.1c0,0,0,0,0,0c0,0.3-0.2,0.3-0.5,0.4
						c-0.2,0.1-0.1,0.2-0.2,0.4c-0.1,0.2-0.7,0.1-0.5,0.6c0.1,0.5,0.8,1.4,2.1,1.6c0,0,0.6,0.3,1,0.7c0.3,0.3,1.7,1,5.2,0.3
						c0.1,0,0.3,0,0.4-0.1c1-0.2,2.1-0.5,3.3-0.8c0,0,0.1,0-0.1-0.1c-0.2-0.1,0-0.1,0.2-0.1c0.2,0,0.5,0.2,1.4,0
						c0.8-0.2,5.2-0.7,7.2-2.8c0,0,2.4-1.5,4.2-3.7c0.8-0.9,1.4-2,1.6-3.1C71.2,89.5,72.3,86.3,72.1,84.8z"/>
				</g>
				<g>
					<g>
						<path class="st2" d="M5.5,89.9c0,0-0.1-0.7,0.7-0.4c0,0,0.4,0.2,0.6,0.2c0.1,0,0.7,0.3,0.9,0.6c0.2,0.2,2,0.7,3.5-1.9
							c0,0,0.4-0.5,0.5-0.4c0,0.1-0.4,0.8-0.3,1c0.1,0.2,0,0.6-0.1,0.7c-0.1,0.1-0.2,2.2,0.4,2.7c0.5,0.5-0.3,3.1-2.8,2.3
							c0,0-1.3-0.4-2.2-1.4c-0.9-1-0.8-1-1-1.2c-0.3-0.1-0.2-0.6,0-1.1c0,0-0.2-0.4-0.2-0.5C5.5,90.5,5.8,90,5.5,89.9z"/>
					</g>
					<g>
						<path class="st2" d="M15.2,70c0,0-0.5,1.3-0.8,1.7c-0.3,0.5-1.9,2.2,0,2.8c1.8,0.5,7,3.2,8.6,3.4c1.6,0.2,7.2,0.1,9.2-2.7
							c2-2.8,7.5-7.8,25.5-5.6c0,0,2.9,0.1,3.9,1.3c0,0-7.8-2-11.4,0.3c0,0,4.4-1.3,8.3,0.6c0,0,2,0.4,2.7,0.4c0,0,0.9,1.1,1.9,0.7
							c1-0.4,1.9-2.7-4.5-3.9c0,0-13.7-4.5-24.4,1.1c0,0-2.3,1.6,2.1,0.1l2.4-0.1c0,0-2,0.5-4.9,2.5c-2.9,2-7.3,1.8-4.2,0
							c0,0,0.8-0.3,1.9-0.5c1-0.3-2.4-0.5-4.4-0.1c-2,0.3-5.3-0.5-3.5-1.2c0,0,0.6-0.4,1.7-0.2c1.1,0.3,2-1.1,3.9-1.4
							c1.9-0.3,7.7-2.5,10-6.7c0,0,1-0.4,1.8-0.8c0.8-0.4,1.6-3.2,0.8-3.7c-0.7-0.5-0.3-1.4-0.3-1.4s-2.3-3-4.6-2.9
							c0,0-0.5-0.6-0.9-0.6c-0.4-0.1-1.9,0.3-5,1.5c-3.1,1.2-11.4,5.6-15.1,14L15.2,70z"/>
					</g>
					<g>
						<path d="M42.9,85.2c-0.1-0.7-0.9-1.6-1.6-1.5c-0.8,0-2.4,0.2-3,0.2c-0.6,0-3.1,0.7-3.6,0.7c-0.5,0,1.2-2.9,1.8-4.1
							c0.6-1.2-0.4-2.4-0.4-2.4c-1.1-0.7-3.5-0.2-4.3,0c-0.8,0.1-5.3,1.4-6.7,1c-1.4-0.5-4.2-0.7-4.2-0.7c-0.4,0.3-2.8,4.7-3.5,5.7
							c-0.7,1-1,0-1,0c-0.7-1-3.8-1.3-3.8-1.3s-0.2-0.2-1.1,0.1c-0.9,0.3-0.6-0.5-0.3-0.7c0.3-0.2,0.8-0.8,0.8-0.8
							c1-1.5,3-1.3,3.8-1.3c0.8-0.1,0.6-0.5,0.6-0.5c0.3-1.1-0.4-1.1-0.8-1.4c-0.3-0.3-0.3-0.8-1.5-1.1c-1.1-0.2-2.9-2-3.4-2.7
							c-0.5-0.7-0.9-0.8-1.1-0.9C9.4,73.5,9.4,73.9,9,74c-0.4,0.1-0.5,0.8-0.5,0.8c0.6,4.7,3.7,5.5,3.7,5.5c0.5-0.1,0.2,0.5,0,0.6
							c-0.1,0.1-0.9,0.7-1.2,1.4c-0.4,0.7-0.9,0.7-0.9,0.7c-0.5,0.3-0.5,0.8-0.5,1.2s-0.9,1.1-0.9,1.1c-1.8,1.9,2.2,1.8,2.7,1.8
							c0.5,0,0.7-0.9,1.5-0.7c0.8,0.3,1.6,0.4,2.3,0.2c0.7-0.3,0.3,0.7,0.3,0.7c-0.8,0.9-1.1,2.5-1.2,3.2c-0.1,0.7-0.5,1.1-0.5,1.1
							c-0.8-0.4-0.9,0-0.9,0c2.4,3.6,6.3,3.1,7.3,2.8c1-0.3,8.4-0.9,8.4-0.9s-0.2,1.6-0.2,2.5c-0.1,0.8-0.6,1-0.6,1s0.2,0.2-0.1,0
							c-0.3-0.2-0.7,0.1-1.1,0.4C26,97.5,24,97.9,23,97.9c-1.1,0-3.2-0.6-3.2-0.6s0.2,0.4-0.1,0.3c-0.3-0.1-1-0.1-1-0.1
							c0.8,0.2,0.7,0.4,0.7,0.6c0,0.2-0.4,0.1-0.4,0.1c0.4,0.5,1.2,0.7,1.2,0.7c1.3,1.2,4.3,0.9,4.2,1c0,0.1,1.6-0.4,1.6-0.4
							c1.7,0.2,2.1,0.7,2.1,0.7l0.2,0.5c0.2,0.6,0.8,0.3,0.8,0.3c1.2-0.5,0.6-1.4,0.6-1.4c-0.1,0-0.1-0.2-0.1-0.2
							c-0.1-0.5,0.9-2.2,0.9-4.4c0-0.7,0.1-1.1,0.3-1.3l0,0c0.3-0.1,0.6-0.2,0.9-0.2c0.1,0,0.2,0,0.3,0c1.5,0,3.2,0.6,3.2,0.6
							c0.5,0.3,0.9,0.4,1.4,0.5c1.3,0.4,1.8,0,1.8-0.3c0,0,0-0.1,0-0.1c0-0.4,0.2-0.7,0.2-0.7c1.1-0.6-0.6-1.3-0.6-1.3
							c-2.9-1.7-3.8-1.6-4.4-1.2c-0.2,0.2-0.4,0.4-0.6,0.6c-0.6,0.4-1.8,0.3-1.8,0.3c0,0,0,0,0,0c-0.4-0.1,0.2-2.8,0.5-3.3
							c0.2-0.5,1-0.4,1-0.4c1.5-0.6,1.4-0.3,1.4-0.3c4.2,1.6,4.7,1.3,5.2,1.4c0.5,0.1,0.6,0.2,0.6,0.2c1.3,1.1,2.3,0.4,2.6,0.4
							c0.2,0,0.8,0,0.8-0.2c0-0.3-0.1-1-0.1-1C43.9,87.3,43,85.9,42.9,85.2z M23,83.6c0-0.4,0.6-0.6,1.7-0.7
							c1.1-0.2,2.4,0.2,2.4,0.2L26,85.3c0,0-2.7-0.1-3.1-0.3C22.6,84.8,23,84,23,83.6z M19.5,92c-0.2-0.1-0.6-0.8,0.1-1.1
							c0.7-0.3-0.2-0.6-0.2-0.6s0-2,1.3-1.8c0,0,0.1-0.4,1.2-0.5c1.1-0.1,1.4-0.5,1.4-0.5s-1.2-0.2-0.1-0.2c1.1,0,1.9,0,1.9,0
							s0.3,0,0.1,1.1c-0.2,1.1-1,3.9-1,3.9S19.7,92.1,19.5,92z M30.2,88c0,0-1.2,3.8-1.2,4c-0.1,0.1-2.8,0.2-3.7,0.2
							c-0.9-0.1-0.5-0.8-0.4-1c0.4-0.9,1-3,1.2-3.5c0.2-0.5,0.5,0,1.4,0c0.9,0,1.8,0.2,1.8,0.2C30.6,87.1,30.2,88,30.2,88z
							 M31.1,85.2c-0.3,0.2-3.6,0.2-4,0c0,0,1-2.4,1.2-2.3c0.2,0.1,3.5-1.6,3.6-1.1C32,82.4,31.3,85,31.1,85.2z"/>
					</g>
				</g>
			</g>
			<g>
				<g>
					<path class="st2" d="M28.2,9.6c0,0,0.5-5.6-0.3-7.5c0,0-0.8-2.7,1.9-2c2.7,0.8,4.4,1.6,3.9,4.2c-0.6,2.6,0.1,4.4-1.7,10.6
						c0,0-1.1,9.5,0.1,12.1c0,0,3.8,6-2.4,7.5c0,0-2.1,0.7-3.8-0.6c0,0-4.4,1.8-6.5,2.7c-2.1,0.9-7.3,4.1-10.2-2.1
						c0,0-2.8-4.6,0.9-4c0,0,0.4,0.2,0.8,0.5c0.4,0.3,6-1.4,8.4-2.2c2.5-0.8,7.4-3,7.7-3.8c0.3-0.8,0.6-7.3,0.6-7.3s-3.5,4.9-8.3,7
						c0,0-4.9,2.9-7.8-3.3c0,0-2.7-5.2,0.4-6c0,0,1,0.1,1.6,0.3c0.6,0.2,2.9-0.1,3.1-0.1c0.2,0,3.8-1.1,4.6-1.3
						C21.9,14.2,26.6,11.5,28.2,9.6z"/>
				</g>
				<g>
					<path d="M53,18.8C53,18.8,53,18.8,53,18.8c0,0-0.1-0.1-0.3,0c-0.3,0-0.9,0.2-1.9,0.9c-0.1,0.1-0.2,0.2-0.3,0.2
						c-0.1,0-0.1,0.1-0.2,0.1c-1.2,0.9-1.6,1.5-2.1,2c-0.3,0.2-0.6,0.4-0.9,0.6c0,0,0,0,0,0c-0.5,0.2-1.5,0.7-2.6,1.2
						c0,0-0.1,0-0.1,0.1c-0.5,0.2-0.9,0.2-1.5,0.4c-0.8,0.2-1.6,0.8-2.6,0.6c-0.6-0.3-1.3-0.4-1.7-0.8c0,0-1.3-1.8-0.1-3.5
						c0.1-0.1,0.1-0.2,0.2-0.3c0-0.1,0.1-0.1,0.1-0.2c1.3-1.3,3.6-2.1,5-2.5c0,0,0.1,0,0.1,0c0.2,0,0.4-0.1,0.6-0.1
						c0.1,0,0.1,0,0.2,0c0.7-0.1,1.7-0.5,2.6-0.8c0.5-0.1,0.9-0.2,1.4-0.1c0.2,0,0.4,0.1,0.8,0.1c0.3,0,0.6,0.1,0.9,0
						c0,0,0.1,0,0.1-0.1c0.5-0.1,1.1-0.4,1.5-0.8c0.1-0.1,0.2-0.2,0.3-0.4c0.3-0.6,0.5-1.3,0.3-2.4h0c-0.1-0.5-0.2-0.9-0.5-1.3
						c-0.2-0.4-0.6-0.6-1.1-0.9c-0.5-0.3-1-0.4-1.5-0.5c-0.3-0.1-1-0.3-1.3-0.2c-0.7,0-1.1,0.5-1.5,0.9c-0.8,0.6-1.5,1.4-2.4,1.8
						c0,0,0,0,0,0c-0.6,0.3-3,1.7-3.4,1.8c0.3-1.1,0.6-2.2,1.2-3c0.3-0.2,0.5-0.4,0.7-0.5c0.2-0.2,0.4-0.3,0.6-0.3c0,0,0,0,0,0
						c0.3,0,2.6-1,2.5-2.6c0,0,0,0,0,0c0,0,0,0,0,0c0-0.4-0.2-0.9-0.6-1.4c0,0-0.3-0.1-0.8-0.3c-0.3-0.1-0.6-0.2-0.9-0.2
						c-0.5-0.1-1-0.2-1.5-0.2c-0.9,0-1.8,0.1-2.5,0.6c0,0-0.1,0-0.2,0c-0.1,0-0.2,0.1-0.3,0.1c-0.3,0.1-0.6,0.4-0.9,0.9
						c0,0.1-0.1,0.1-0.1,0.2c-0.2,0.2-0.3,0.5-0.4,0.8c0,0.1-0.1,0.2-0.1,0.3c-0.2,0.5-0.4,1-0.6,1.7c0,0.1,0,0.1-0.1,0.2
						c0,0,0,0.1,0,0.1c0,0,0,0,0,0c-0.1,0.5-0.2,1-0.3,1.6c0,0.1,0,0.2,0,0.2c0,0.1,0,0.1,0,0.2c0,0.2-0.1,0.5-0.1,0.7c0,0,0,0,0,0
						c0,0,0,0,0,0c-0.1,0.8-0.3,1.5-0.4,2.2c-0.7,3.3-1.3,6.2-0.9,8.4c0.2,1,0.6,1.9,1.4,2.5c0.1,0.1,0.2,0.1,0.3,0.2
						c0.9,0.8,2.2,1.4,3.5,2c1.1,0.5,2.5,1,4.2,0.8c1.9-0.2,2.4-1.4,3.5-2.4c1.6-1.5,3.2-3,4.2-4.8c0,0,0.3-0.3,0.6-0.8
						C53.5,20.9,54.5,19.1,53,18.8z"/>
				</g>
			</g>
		</g>
	</g>
</g>
</svg>
